PathFileType	4	(X/Y/Z)	/Users/itak/Documents/Research/Walk-IL/dataset/trc/00556_00009.trc
DataRate	CameraRate	NumFrames	NumMarkers	Units	OrigDataRate	OrigDataStartFrame	OrigNumFrames
100.000000	100.000000	4	55	mm	100.000000	39	318
Frame#	Time	RPSI			LPSI			L3			STRN			T10			C7			CLAV			RBAK			LBAK			LSHO			LUPA			LAEL			LAOL			LWTS			LWPS			LFRA			LIFD			LHPS			LHTS			RSHO			RUPA			RAEL			RAOL			RWTS			RWPS			RFRA			RIFD			RHTS			RHPS			RBHD			LFHD			RFHD			LBHD			LHIP			RHIP			RASI			LASI			LKNE			LTHI			LANK			LTIP			LTOE			LMT1			LMT5			LHEE			RKNE			RTHI			RANK			RTIP			RTOE			RMT1			RMT5			RHEE			*53			*54			
		X1	Y1	Z1	X2	Y2	Z2	X3	Y3	Z3	X4	Y4	Z4	X5	Y5	Z5	X6	Y6	Z6	X7	Y7	Z7	X8	Y8	Z8	X9	Y9	Z9	X10	Y10	Z10	X11	Y11	Z11	X12	Y12	Z12	X13	Y13	Z13	X14	Y14	Z14	X15	Y15	Z15	X16	Y16	Z16	X17	Y17	Z17	X18	Y18	Z18	X19	Y19	Z19	X20	Y20	Z20	X21	Y21	Z21	X22	Y22	Z22	X23	Y23	Z23	X24	Y24	Z24	X25	Y25	Z25	X26	Y26	Z26	X27	Y27	Z27	X28	Y28	Z28	X29	Y29	Z29	X30	Y30	Z30	X31	Y31	Z31	X32	Y32	Z32	X33	Y33	Z33	X34	Y34	Z34	X35	Y35	Z35	X36	Y36	Z36	X37	Y37	Z37	X38	Y38	Z38	X39	Y39	Z39	X40	Y40	Z40	X41	Y41	Z41	X42	Y42	Z42	X43	Y43	Z43	X44	Y44	Z44	X45	Y45	Z45	X46	Y46	Z46	X47	Y47	Z47	X48	Y48	Z48	X49	Y49	Z49	X50	Y50	Z50	X51	Y51	Z51	X52	Y52	Z52	X53	Y53	Z53	X54	Y54	Z54	X55	Y55	Z55	

40	0.39	-1217.739501953125	1008.011047363281	-78.45315551757812	-1180.351318359375	1011.941040039062	-206.3575286865234	-1181.942138671875	1112.728393554688	-141.3689117431641	-931.7825317382812	1273.05029296875	-92.71616363525391	-1175.560302734375	1238.392944335938	-141.4359893798828	-1092.870971679688	1503.859619140625	-112.2898788452148	-934.8478393554688	1384.335083007812	-94.04379272460938	-1195.5390625	1389.443481445312	-43.43585205078125	-1116.8271484375	1457.33642578125	-209.5291290283203	-1002.0703125	1473.654296875	-269.32275390625	-1006.178771972656	1349.578125	-351.9940795898438	-991.373291015625	1127.029052734375	-373.1445922851562	-1088.953857421875	1125.348876953125	-350.0067749023438	-947.6825561523438	871.3700561523438	-316.8886413574219	-966.855224609375	858.6986083984375	-400.7682800292969	-975.7810668945312	1038.724243164062	-377.887451171875	-962.1297607421875	701.2745971679688	-331.260498046875	-967.7506713867188	798.4818725585938	-396.4815368652344	-934.1815795898438	794.5475463867188	-337.2758178710938	-1067.774169921875	1460.590087890625	47.39543151855469	-1104.9697265625	1400.653076171875	109.596794128418	-1141.089477539062	1118.392333984375	164.9692230224609	-1195.4951171875	1103.649658203125	135.6568756103516	-1012.930358886719	894.5943603515625	131.9396362304688	-1060.92822265625	876.5984497070312	197.1061553955078	-1132.721435546875	1062.442260742188	172.5877990722656	-1005.5947265625	722.12158203125	142.2585906982422	-984.5693359375	804.1677856445312	152.6697082519531	-1043.763916015625	802.2760009765625	198.7093048095703	-987.8991088867188	1673.569091796875	-26.5733699798584	-811.1334838867188	1655.649780273438	-134.33984375	-851.4636840820312	1657.583251953125	3.940688610076904	-934.6033325195312	1668.573852539062	-183.8187561035156	-1023.228576660156	929.6631469726562	-295.727783203125	-1130.345336914062	930.8018798828125	67.59817504882812	-1030.648193359375	960.79150390625	36.56327056884766	-958.3768310546875	956.0742797851562	-232.0488128662109	-954.1903686523438	491.2391052246094	-218.6073913574219	-971.3590087890625	656.255859375	-261.6581420898438	-1085.564086914062	32.10593795776367	-234.6977386474609	-1037.676879882812	246.7387847900391	-236.8844299316406	-891.7817993164062	38.17018127441406	-134.8767547607422	-970.6836547851562	39.79494094848633	-114.2341079711914	-962.8660888671875	34.3814811706543	-222.5680084228516	-1164.671508789062	32.85586929321289	-196.0573425292969	-1039.402221679688	492.329345703125	54.91753768920898	-1082.152465820312	780.8902587890625	84.99748229980469	-1184.303466796875	36.85112762451172	15.37547302246094	-1049.035278320312	344.6486206054688	43.71718978881836	-959.5322875976562	39.13616943359375	37.38374328613281	-1009.971496582031	38.11010360717773	-21.00835418701172	-1060.095458984375	38.61666488647461	70.75811767578125	-1221.289672851562	25.61226654052734	-53.13588333129883	nan	nan	nan	nan	nan	nan	
41	0.4	-1217.451049804688	1007.985473632812	-78.44729614257812	-1179.9365234375	1011.909057617188	-206.4684448242188	-1181.579467773438	1112.725952148438	-141.4430999755859	-931.4573364257812	1273.05859375	-92.76974487304688	-1175.21533203125	1238.364501953125	-141.5003509521484	-1092.617797851562	1503.845092773438	-112.2310333251953	-934.514892578125	1384.380981445312	-94.10231781005859	-1195.246337890625	1389.4267578125	-43.56330490112305	-1116.513427734375	1457.332153320312	-209.5105133056641	-1001.834899902344	1473.711181640625	-269.2828063964844	-1005.985961914062	1349.703979492188	-352.1431579589844	-991.5205078125	1127.25390625	-373.6812133789062	-1089.013427734375	1125.583374023438	-350.3382263183594	-947.8822021484375	871.3884887695312	-317.9429931640625	-967.2969970703125	858.9874877929688	-401.870849609375	-975.9772338867188	1038.934448242188	-378.5776062011719	-962.5986938476562	701.3213500976562	-332.5917358398438	-968.1925659179688	798.7586669921875	-397.6134948730469	-934.5280151367188	794.5986328125	-338.5717163085938	-1067.502807617188	1460.524780273438	47.3521728515625	-1104.750854492188	1400.540161132812	109.5659713745117	-1140.666748046875	1118.234252929688	164.7264556884766	-1195.123291015625	1103.460571289062	135.5495758056641	-1012.173828125	894.7403564453125	131.3306884765625	-1060.062622070312	876.6154174804688	196.6067504882812	-1132.283813476562	1062.267333984375	172.4137420654297	-1004.552795410156	722.2167358398438	141.6848449707031	-983.6207885742188	804.2730102539062	152.0261688232422	-1042.793701171875	802.3583374023438	198.2442016601562	-987.4281616210938	1673.557983398438	-26.39484214782715	-810.8070678710938	1655.58642578125	-134.2943572998047	-851.0571899414062	1657.507202148438	3.985393762588501	-934.35498046875	1668.547119140625	-183.7252349853516	-1022.770080566406	929.7424926757812	-295.8234252929688	-1130.013305664062	930.786376953125	67.49684143066406	-1030.309326171875	960.8080444335938	36.55735778808594	-958.2473754882812	955.7869873046875	-231.7471618652344	-954.1004638671875	491.214111328125	-218.5987396240234	-971.0581665039062	656.2310180664062	-261.609130859375	-1085.541748046875	32.11110305786133	-234.6600341796875	-1037.60693359375	246.7220001220703	-236.9119720458984	-891.7757568359375	38.16128921508789	-134.8707580566406	-970.6846923828125	39.78872299194336	-114.2295455932617	-962.862548828125	34.38442993164062	-222.5635375976562	-1164.669555664062	32.86430740356445	-196.0555725097656	-1039.218017578125	492.3106079101562	54.92109680175781	-1081.86962890625	780.8682861328125	84.97062683105469	-1184.2958984375	36.87185668945312	15.36615467071533	-1048.834716796875	344.6164245605469	43.6200065612793	-959.5305786132812	39.1359977722168	37.38533782958984	-1009.966369628906	38.09056091308594	-21.02952003479004	-1060.082763671875	38.61808395385742	70.74380493164062	-1221.279541015625	25.62221336364746	-53.14530181884766	nan	nan	nan	nan	nan	nan	
42	0.41	-1217.159545898438	1007.979187011719	-78.42596435546875	-1179.527954101562	1011.894836425781	-206.5665283203125	-1181.204833984375	1112.731079101562	-141.5044860839844	-931.0762329101562	1273.071655273438	-92.85221099853516	-1174.84326171875	1238.345092773438	-141.5741729736328	-1092.337158203125	1503.836059570312	-112.1795196533203	-934.122802734375	1384.451416015625	-94.17790222167969	-1194.929321289062	1389.412231445312	-43.67340469360352	-1116.193115234375	1457.33544921875	-209.4877166748047	-1001.57861328125	1473.771118164062	-269.248046875	-1005.7294921875	1349.8232421875	-352.2731018066406	-991.5220336914062	1127.44287109375	-374.1433410644531	-1088.94580078125	1125.78369140625	-350.5924377441406	-947.8696899414062	871.43310546875	-318.8350830078125	-967.5154418945312	859.261962890625	-402.817626953125	-976.0048217773438	1039.133178710938	-379.1571044921875	-962.8297119140625	701.3817138671875	-333.7457885742188	-968.3828735351562	799.0123291015625	-398.5681762695312	-934.63720703125	794.663330078125	-339.690673828125	-1067.201782226562	1460.465942382812	47.31182479858398	-1104.484130859375	1400.433837890625	109.5389556884766	-1140.208618164062	1118.074096679688	164.4969024658203	-1194.691772460938	1103.269775390625	135.4356231689453	-1011.34619140625	894.8837890625	130.7358245849609	-1059.1328125	876.63916015625	196.0828857421875	-1131.778076171875	1062.091918945312	172.2087860107422	-1003.405578613281	722.2959594726562	141.0242309570312	-982.629150390625	804.3885498046875	151.38916015625	-1041.765014648438	802.443359375	197.7519378662109	-986.960205078125	1673.562133789062	-26.23663520812988	-810.470458984375	1655.551147460938	-134.2530822753906	-850.6605224609375	1657.454223632812	4.034910202026367	-934.0857543945312	1668.519653320312	-183.6285400390625	-1022.324829101562	929.8316650390625	-295.925048828125	-1129.664184570312	930.775634765625	67.40525054931641	-1029.950561523438	960.82177734375	36.53156661987305	-958.1707153320312	955.4594116210938	-231.4138336181641	-954.0321044921875	491.1944885253906	-218.6128082275391	-970.7882080078125	656.228515625	-261.5775756835938	-1085.529052734375	32.11479568481445	-234.6365966796875	-1037.557006835938	246.7002563476562	-236.9505157470703	-891.7708129882812	38.15383529663086	-134.8656005859375	-970.686767578125	39.78414535522461	-114.2252807617188	-962.85986328125	34.38650131225586	-222.5617370605469	-1164.667358398438	32.87361145019531	-196.0520324707031	-1039.036865234375	492.293701171875	54.91584014892578	-1081.560424804688	780.8499755859375	84.93018341064453	-1184.284301757812	36.89145278930664	15.3608512878418	-1048.640258789062	344.5904541015625	43.51788330078125	-959.5147705078125	39.12560653686523	37.37810134887695	-1009.963317871094	38.07192993164062	-21.04805374145508	-1060.070434570312	38.61785888671875	70.73110961914062	-1221.268432617188	25.63190269470215	-53.15534210205078	nan	nan	nan	nan	nan	nan	
43	0.42	-1216.85302734375	1007.987854003906	-78.41177368164062	-1179.127197265625	1011.900268554688	-206.6504974365234	-1180.813720703125	1112.743530273438	-141.5597534179688	-930.63671875	1273.0908203125	-92.96146392822266	-1174.44580078125	1238.332763671875	-141.6544952392578	-1092.026245117188	1503.832763671875	-112.1381378173828	-933.6748046875	1384.540893554688	-94.26057434082031	-1194.590698242188	1389.39697265625	-43.75749588012695	-1115.865600585938	1457.347534179688	-209.4590301513672	-1001.294189453125	1473.836791992188	-269.2235717773438	-1005.417175292969	1349.941040039062	-352.3768310546875	-991.388427734375	1127.597900390625	-374.5332641601562	-1088.750732421875	1125.94580078125	-350.7714538574219	-947.6366577148438	871.512451171875	-319.5735778808594	-967.5010375976562	859.5126342773438	-403.5943298339844	-975.8667602539062	1039.31884765625	-379.631103515625	-962.8096923828125	701.4619140625	-334.7123413085938	-968.3215942382812	799.2294311523438	-399.347900390625	-934.49658203125	794.7474365234375	-340.6221313476562	-1066.871215820312	1460.412719726562	47.2801628112793	-1104.165771484375	1400.336547851562	109.5150375366211	-1139.712158203125	1117.91015625	164.2810363769531	-1194.197265625	1103.07470703125	135.3044281005859	-1010.43798828125	895.0165405273438	130.1553649902344	-1058.1396484375	876.6671142578125	195.5309448242188	-1131.203857421875	1061.919189453125	171.9686431884766	-1002.151489257812	722.3517456054688	140.2680206298828	-981.5936279296875	804.5142211914062	150.7599334716797	-1040.672607421875	802.5300903320312	197.2242431640625	-986.5066528320312	1673.5771484375	-26.10998153686523	-810.1115112304688	1655.545043945312	-134.2151641845703	-850.2699584960938	1657.423950195312	4.08322286605835	-933.7915649414062	1668.491577148438	-183.5247497558594	-1021.90771484375	929.9168090820312	-296.02685546875	-1129.299682617188	930.7695922851562	67.32421875	-1029.57568359375	960.8319702148438	36.48234939575195	-958.0923461914062	955.1416625976562	-231.0997619628906	-953.981689453125	491.1758728027344	-218.6446533203125	-970.54833984375	656.2416381835938	-261.5644226074219	-1085.52685546875	32.11681365966797	-234.6270141601562	-1037.525512695312	246.6746673583984	-236.9974365234375	-891.76708984375	38.14789962768555	-134.8607025146484	-970.6902465820312	39.78091049194336	-114.2202987670898	-962.8587646484375	34.3880615234375	-222.5618286132812	-1164.665161132812	32.88359832763672	-196.0474243164062	-1038.861083984375	492.2765197753906	54.89915084838867	-1081.228149414062	780.83447265625	84.87047576904297	-1184.270263671875	36.9100227355957	15.35896396636963	-1048.464721679688	344.5718994140625	43.42398452758789	-959.486328125	39.10582733154297	37.36236572265625	-1009.962097167969	38.05434799194336	-21.06435966491699	-1060.05908203125	38.61598587036133	70.72036743164062	-1221.258178710938	25.64123153686523	-53.16473007202148	nan	nan	nan	nan	nan	nan	
